# xmcd
#
# Track frame offsets:
#	200
#	19885
#	46130
#	80532
#	108962
#
# Disc length: 1896 seconds
#
# Revision: 5
# Processed by: cddbd v1.5.2PL0 Copyright (c) Steve Scherf et al.
# Submitted via: EZCDAudioConverter 1.3.4.1
#
DISCID=32076605
DTITLE=The B-52's - Tell It Like It T-I-IS
DYEAR=1992
DGENRE=
TTITLE0=Tell It Like It T-I-IS [Edit]
TTITLE1=Tell It Like It T-I-IS [MK Respect Mix]
TTITLE2=Tell It Like It T-I-IS [MK Mix]
TTITLE3=Tell It Like It T-I-IS [MK Dub]
TTITLE4=Tell It Like It T-I-IS [MK Underground Mix]
EXTD=
EXTT0=
EXTT1=
EXTT2=
EXTT3=
EXTT4=
PLAYORDER=
